<?xml version="1.0" standalone="no"?>
<!DOCTYPE svg PUBLIC "-//W3C//DTD SVG 20010904//EN"
 "http://www.w3.org/TR/2001/REC-SVG-20010904/DTD/svg10.dtd">
<svg version="1.0" xmlns="http://www.w3.org/2000/svg"
 width="669.000000pt" height="225.000000pt" viewBox="0 0 669.000000 225.000000"
 preserveAspectRatio="xMidYMid meet">

<g transform="translate(0.000000,225.000000) scale(0.100000,-0.100000)"
fill="#000000" stroke="none">
<path d="M53 1643 c3 -5 181 -314 397 -688 216 -374 393 -681 394 -682 1 -1
33 53 72 120 39 67 158 273 264 457 106 184 253 439 327 565 l133 230 -152 3
c-135 2 -154 1 -166 -15 -6 -9 -85 -143 -174 -298 -257 -447 -300 -517 -308
-508 -5 4 -68 112 -141 238 -73 127 -178 309 -234 405 l-102 175 -157 3 c-87
1 -155 -1 -153 -5z m395 -175 c55 -95 166 -288 247 -428 81 -140 148 -256 149
-257 1 -1 114 191 250 427 l248 430 134 0 c74 0 134 -3 134 -6 0 -8 -44 -86
-387 -679 -392 -678 -374 -648 -383 -638 -5 4 -73 121 -153 258 -79 138 -246
427 -371 643 -125 217 -230 400 -233 408 -4 12 18 14 130 14 l135 0 100 -172z"/>
<path d="M5712 993 l3 -658 125 0 125 0 3 658 2 657 -130 0 -130 0 2 -657z
m248 2 l0 -645 -120 0 -120 0 0 638 c0 351 3 642 7 645 3 4 57 7 120 7 l113 0
0 -645z"/>
<path d="M1810 1324 c-181 -39 -330 -178 -375 -349 -23 -92 -20 -236 9 -316
52 -147 176 -265 337 -320 99 -33 270 -38 372 -10 106 29 185 71 253 134 l57
53 -117 67 -117 68 -42 -36 c-118 -101 -355 -76 -446 47 -17 23 -31 46 -31 50
0 4 177 8 394 8 l393 0 7 55 c8 67 -7 176 -34 248 -42 111 -143 219 -253 267
-109 48 -277 62 -407 34z m309 -19 c180 -48 310 -176 356 -351 15 -59 20 -161
9 -201 l-6 -23 -394 0 c-217 0 -394 -4 -394 -8 0 -22 63 -104 97 -126 122 -81
313 -78 409 6 l34 30 100 -58 c55 -32 100 -61 100 -65 0 -17 -101 -93 -165
-123 -97 -47 -163 -61 -280 -60 -170 1 -294 48 -407 153 -185 170 -196 496
-23 680 104 111 226 160 400 160 65 1 132 -5 164 -14z"/>
<path d="M1848 1096 c-21 -8 -49 -21 -63 -30 -43 -29 -107 -127 -92 -143 6 -5
536 -7 542 -2 2 2 -5 22 -16 44 -48 98 -130 145 -254 144 -44 0 -97 -6 -117
-13z m252 -32 c51 -28 110 -92 110 -121 0 -10 -47 -13 -250 -13 -163 0 -250 4
-250 10 0 6 11 27 25 48 73 109 240 144 365 76z"/>
<path d="M3752 1320 c-97 -26 -164 -63 -233 -130 -97 -95 -143 -214 -142 -370
2 -171 65 -306 190 -400 234 -177 621 -137 788 81 45 60 50 53 -90 133 -92 54
-100 57 -110 40 -40 -73 -137 -124 -235 -124 -164 0 -272 109 -273 275 -1 201
174 322 374 258 51 -17 114 -66 136 -107 9 -17 18 -13 121 45 61 35 112 69
112 76 0 7 -28 42 -61 78 -70 74 -184 138 -278 155 -84 16 -218 11 -299 -10z
m322 -15 c32 -8 83 -27 114 -43 58 -28 187 -143 180 -162 -2 -6 -46 -35 -98
-64 l-94 -54 -41 43 c-65 69 -94 80 -215 80 -96 0 -109 -2 -151 -27 -94 -55
-139 -139 -139 -258 0 -76 23 -140 70 -193 108 -122 337 -122 440 0 l33 40 99
-56 c54 -31 98 -60 98 -64 0 -5 -28 -37 -62 -71 -111 -110 -262 -164 -427
-152 -298 22 -491 220 -491 504 0 230 143 415 369 478 65 18 244 17 315 -1z"/>
<path d="M4895 1334 c-184 -39 -311 -131 -380 -275 -116 -245 -39 -513 189
-661 83 -54 170 -79 297 -85 128 -7 226 12 327 62 83 42 182 128 166 145 -6 6
-57 38 -114 71 l-104 59 -25 -24 c-95 -91 -297 -98 -411 -15 -36 27 -80 82
-80 102 0 4 175 7 389 7 345 0 390 2 395 16 10 26 7 159 -5 216 -19 92 -65
172 -139 242 -76 71 -150 111 -248 132 -62 13 -210 17 -257 8z m301 -39 c121
-41 204 -102 264 -196 57 -88 88 -222 75 -320 l-7 -49 -400 0 -399 0 23 -41
c44 -78 122 -130 224 -148 99 -18 217 12 281 71 l21 20 102 -60 101 -59 -31
-32 c-147 -146 -400 -197 -620 -124 -94 31 -152 68 -222 141 -90 94 -128 193
-128 332 0 136 40 241 127 331 110 116 215 157 396 158 101 1 130 -3 193 -24z"/>
<path d="M4874 1086 c-53 -25 -116 -90 -133 -137 -5 -16 -7 -29 -3 -29 4 -1
126 -1 272 -1 l265 -1 -3 23 c-4 33 -39 86 -76 114 -79 60 -228 75 -322 31z
m239 -6 c63 -24 147 -106 147 -144 0 -3 -115 -6 -255 -6 l-255 0 19 39 c56
109 213 160 344 111z"/>
<path d="M2660 826 c0 -390 3 -485 13 -489 7 -3 68 -5 134 -5 l122 0 3 257 3
256 29 53 c57 102 181 159 294 133 l42 -9 0 146 0 145 -62 -6 c-115 -11 -226
-67 -279 -140 l-29 -40 0 91 0 92 -135 0 -135 0 0 -484z m257 389 c1 -44 2
-100 3 -125 l1 -45 17 50 c32 95 151 178 277 194 36 4 67 5 70 3 3 -3 5 -60 5
-127 l0 -122 -56 5 c-119 10 -226 -42 -281 -135 l-28 -48 -3 -257 -3 -258
-120 0 -119 0 0 475 0 476 118 -3 117 -3 2 -80z"/>
<path d="M0 80 c0 -19 39 -84 47 -77 3 3 -7 25 -21 49 -14 24 -26 36 -26 28z"/>
</g>
</svg>