<?xml version="1.0" standalone="no"?>
<!DOCTYPE svg PUBLIC "-//W3C//DTD SVG 20010904//EN"
 "http://www.w3.org/TR/2001/REC-SVG-20010904/DTD/svg10.dtd">
<svg version="1.0" xmlns="http://www.w3.org/2000/svg"
 width="701.000000pt" height="199.000000pt" viewBox="0 0 701.000000 199.000000"
 preserveAspectRatio="xMidYMid meet">

<g transform="translate(0.000000,199.000000) scale(0.100000,-0.100000)"
fill="#000000" stroke="none">
<path d="M49 1657 c10 -18 95 -165 188 -327 93 -162 232 -403 308 -535 76
-132 167 -289 201 -348 34 -60 64 -109 67 -110 9 -3 777 1323 777 1340 0 6
-198 9 -277 4 -6 -1 -51 -70 -99 -153 -48 -84 -155 -270 -237 -413 -82 -143
-153 -264 -157 -268 -4 -5 -81 119 -170 275 -90 156 -199 345 -243 421 l-79
137 -132 1 c-72 0 -139 2 -149 4 -16 3 -16 1 2 -28z"/>
<path d="M5690 1685 c0 0 -1 -294 -3 -653 l-2 -652 128 0 127 0 0 650 0 650
-87 1 c-49 1 -105 2 -125 3 -21 1 -38 2 -38 1z"/>
<path d="M1749 1346 c-192 -56 -321 -207 -350 -408 -23 -159 25 -304 140 -419
71 -71 153 -117 256 -144 78 -20 249 -20 329 1 85 22 204 86 254 137 l41 42
-111 63 -110 64 -27 -25 c-81 -76 -236 -96 -351 -46 -48 21 -123 88 -145 129
l-13 25 396 0 397 0 9 49 c6 31 5 77 -3 129 -28 199 -168 357 -363 408 -102
27 -249 25 -349 -5z m312 -227 c53 -23 111 -82 128 -130 l10 -29 -270 0 -270
0 28 52 c66 123 229 169 374 107z"/>
<path d="M3765 1363 c-192 -43 -330 -160 -385 -328 -81 -249 22 -513 242 -619
91 -43 151 -56 272 -56 169 0 297 51 396 157 33 35 60 68 60 73 0 4 -48 36
-107 70 -75 43 -109 57 -112 48 -10 -31 -80 -86 -136 -107 -48 -19 -72 -22
-122 -17 -165 14 -262 115 -263 271 0 92 13 134 59 193 52 66 119 95 221 96
94 1 174 -34 217 -94 16 -22 34 -38 41 -35 34 12 202 118 202 127 0 5 -30 40
-67 77 -109 108 -225 152 -398 150 -55 -1 -109 -3 -120 -6z"/>
<path d="M4820 1354 c-229 -60 -380 -255 -380 -490 0 -210 124 -383 333 -465
72 -28 97 -33 201 -37 75 -3 139 0 175 8 109 24 257 106 295 164 l16 25 -106
60 -106 61 -33 -29 c-98 -85 -301 -87 -413 -4 -34 25 -89 100 -80 108 3 3 180
6 394 8 l389 2 3 89 c2 50 -2 112 -8 139 -36 171 -180 313 -366 361 -77 20
-239 20 -314 0z m283 -232 c46 -21 89 -60 118 -107 35 -56 41 -55 -246 -55
l-265 0 15 38 c54 127 236 187 378 124z"/>
<path d="M2763 1342 l-123 -3 0 -479 0 -480 124 0 124 0 4 248 c3 203 7 254
20 284 27 59 67 107 117 136 41 24 56 27 144 27 l97 0 0 134 0 134 -67 -6
c-115 -9 -220 -66 -273 -145 -16 -25 -31 -59 -32 -76 -1 -17 -5 28 -8 99 l-5
130 -122 -3z"/>
<path d="M0 43 c0 -12 5 -25 10 -28 13 -8 13 15 0 35 -8 12 -10 11 -10 -7z"/>
</g>
</svg>
